<?xml version="1.0" encoding="utf-8"?>
<!-- Generator: Adobe Illustrator 16.0.0, SVG Export Plug-In . SVG Version: 6.00 Build 0)  -->
<!DOCTYPE svg PUBLIC "-//W3C//DTD SVG 1.1//EN" "http://www.w3.org/Graphics/SVG/1.1/DTD/svg11.dtd">
<svg version="1.1" id="Layer_1" xmlns="http://www.w3.org/2000/svg" xmlns:xlink="http://www.w3.org/1999/xlink" x="0px" y="0px"
	 width="612px" height="792px" viewBox="0 0 612 792" enable-background="new 0 0 612 792" xml:space="preserve">
<g>
	<path d="M420.326,309.522c0,0-0.569,12.489,3.977,20.043c1.285,2.134,1.217-4.621,1.217-4.621s0.445,24.974,0.481,31.129
		c0.038,6.155,4.542-10.219,4.542-10.219s-4.614,31.864-3.974,34.63c0.645,2.77,4.615,3.84,4.615,3.84s-0.905,5.543-0.272,7.387
		c0.638,1.845-2.072,15.456-2.072,15.456s8.583-20.716,11.056-23.808c2.476-3.087,9.93-5.582,10.854-8.048
		c0.915-2.467,6.824-3.726,8.34-10.504c1.515-6.779,3.98-10.787,3.98-10.787l4.972-1.564c0,0,2.13-8.316,1.487-11.393
		c-0.644-3.076-12.772-0.561-14.927,3.451c-2.154,4.009-4.009,5.867-4.009,5.867l-5.903,3.103c0,0,4.976-1.868,5.887-6.183
		c0.904-4.312,7.731-7.728,9.6-8.354c1.861-0.622,10.573-1.277,10.573-1.277l1.591,4.61l-0.915,3.082c0,0,3.411-2.477,2.131-8.01
		c-1.28-5.536-1.28-5.536-1.28-5.536s4.689,3.672,7.785,0.272s4.646-3.714,4.616-8.945c-0.035-5.233-0.665-7.079-3.157-6.758
		c-2.486,0.32,1.846-3.396,4.032-2.788c2.187,0.606,1.276,5.226,1.276,5.226s4.048-0.634,6.832-3.416
		c2.789-2.782,5.218-12.643-1.354-17.539c0,0,3.198,13.837,11.549,4.569c8.352-9.273-2.898-15.688-2.898-15.688
		s5.639,6.129,4.095,7.678c-1.543,1.544-7.413,9.267-14.641-0.858c-7.225-10.124,1.212-5.236,1.212-5.236l3.439,2.136l1.248-0.314
		c0,0-4.996-0.898-5.025-5.824c-0.03-4.926,4.671-0.329,4.671-0.329s-4.375-2.441-2.523-4.914c1.857-2.471,5.28-2.179,6.825-4.339
		c1.545-2.16-1.898-4.609-1.898-4.609s-2.81-0.91-0.955-3.073c1.856-2.162,9.012-4.041,4.891-16.025c0,0,4.135,14.754-7.075,14.495
		c0,0,13.736,5.789,15.554-2.53c0,0-8.668,8.962-15.277-2.087c0,0,9.346-0.04,5.516-15.106c-3.834-15.065-4.71-5.828-4.71-5.828
		s5.331,4.899,1.279,5.226c0,0-3.14-4.603-1.938-11.687c1.203-7.083-5.321-3.978-5.321-3.978s-1.215,4.622,0.045,6.773
		c1.257,2.149-3.133-2.759-1.322-12.307c1.805-9.547-1.335-14.457-4.143-15.063c0,0-1.836,4.936-0.579,7.391
		c1.261,2.456-3.133-3.373-2.236-9.533c0,0,1.828-6.162-3.168-7.989c0,0,0.333,3.385-0.586,5.236
		c-0.926,1.852,3.072-7.402-3.49-10.451c0,0,10.588-0.659,8.513,17.201c0,0,5.793-20.649-11.332-19.65c0,0-7.494-2.737-5.041-9.211
		c0,0,0.336,4.308,3.471,6.756c3.123,2.448-2.834-3.68,1.189-8.315c0,0,3.157,7.372-6.483,8.338c0,0,11.519-0.359,8.648-11.427
		c0,0,0.91-4.311-5.654-8.283l4.08,5.83c0,0,2.795-1.552,2.744-9.555c-0.049-8.001-4.431-11.674-8.82-15.657
		c0,0,4.354-1.25,4.395,5.828c0.045,7.079,3.859-30.18-7.626-24.898c0,0-2.778,3.707-3.074,6.784
		c-0.292,3.081,2.135-7.701,0.231-13.234c-1.9-5.532-5.972-9.21-10.952-8.878c0,0-4.993-1.824-11.198,2.819
		c-6.199,4.645,10.248-4.66,14.643,0.245c4.389,4.905,1.178-11.394-10.966-10.417c-12.138,0.976-20.222,3.474-32.318,10.916
		c0,0,15.474-15.459,24.872-7.805c9.386,7.654-10.066-14.729-24.966-6.968c-14.897,7.759,8.977-8.658,24.289-0.107
		c0,0-14.088-11.634-27.064,4.119c0,0,10.217-9.279,2.093-12.937c0,0,6.908,7.971-7.08,12.036c0,0-10.632-5.798,4.905-11.718
		c0,0-3.442-3.373-11.527-1.181c-8.085,2.19-16.452,7.461-19.551,11.475c-3.09,4.015,13.003-12.985,27.342-10.585
		c0,0-11.801,6.211-8.952,13.276c2.848,7.065,13.715,1.166,16.188-1.303c0,0-12.739,4.98-24.609-1.432
		c-11.878-6.411,7.056-16.957,20.155-12.706c0,0-15-9.785-32.033,6.295l4.303-8.942c0,0-6.52,3.104-5.877,6.18
		c0.644,3.076-2.828-4.299-2.219-6.762c0.604-2.465-0.894,6.774-0.887,7.698c0.005,0.924,0.005,0.924,0.005,0.924
		s3.35-12.018-8.753-5.501c-12.107,6.517,10.275,0.416,8.312-14.812c-1.959-15.227,9.29-8.349,9.29-8.349s21.056,4.984,20.996-5.174
		c0,0,0.051,8.312-14.012,0.524c0,0,8.829-6.965,10.22-8.814c1.391-1.854-0.438,4.154-11.178,5.124
		c-10.737,0.974,8.88,0.887,12.057-14.364c3.173-15.249,1.472,11.998-18.134,14.391c-19.602,2.398,14.021,0.865,17.637-18.544
		c3.616-19.406-0.312,24.933-33.514,19.077c-33.204-5.854-9.772,6.046-11.605,11.595c-1.836,5.55,3.693-6.941-1.928-9.224
		c-5.616-2.287,11.218,0.873,6.671,20.748c-4.549,19.87,7.841-15.733,0.334-20.778c-7.503-5.045,11.712,5.488,5.254,18.443
		c-6.457,12.956,6.957-8.342,2.714-14.325c-4.237-5.981,11.327,18.877-14.341,22.225c-25.67,3.346,14.015,0.401-3.415-23.07
		c0,0-8.422-2.269-4.241-5.984c0,0-7.95-1.809,1.919,8.305c0,0,4.69,2.748,0.978,6.92c0,0,1.841-5.549-6.596-9.204
		c-8.433-3.654-0.961-4.151-0.961-4.151s-9.347-1.345-1.825,6.474c7.521,7.813,5.176,6.438,2.852,8.758
		c-2.314,2.319,1.374-5.546-5.181-7.367c0,0,5.141,0.441,1.442,6.461c-3.701,6.017-4.193,1.403-3.295-4.605
		c0.895-6.005-0.974-5.995-6.045,4.645c-5.075,10.644,3.28,2.292,1.929,10.148c-1.354,7.855-3.724,2.327-3.724,2.327
		s-3.721,2.323-2.834-5.53c0.887-7.852,0.443-3.233,0.376-14.313c-0.069-11.078,6.044-4.641-2.388-8.301
		c-8.429-3.656-3.338-11.063,2.291-6.933c5.634,4.13-16.879-9.621-6.944,9.264c9.928,18.885,7.965,4.121,1.902,5.993
		c-6.057,1.874-1.938-11.534-6.112-6.899c-4.18,4.636-5.088,8.796,1.957,14.305c7.038,5.51,8.918,6.885,6.632,15.208
		c-2.284,8.32,10.684-9.744-2.911-17.531c-13.595-7.79,16.87,8.695-1.781,13.859c-18.657,5.159,21.003-2.402-8.941-10.116
		c-26.787-6.906-33.686-1.334-32.142,3.208c0.179,0.537,0.48,1.057,0.873,1.543c3.767,4.604-6.63-14.281,25.221-1.035
		c31.847,13.25-38.861-13.677-29.887,1.516c0,0,7.052,7.205,20.149,9.918c13.096,2.711-19.025-4.533-27.441-5.727
		c0,0-6.896-6.743,12.8,5.482c19.697,12.226-34.745-28.777-23.379-3.282c0,0-3.392,5.556-11.519,0.052
		c-8.132-5.504-7.857-12.275-5.387-14.752c2.479-2.474-7.15,2.187-3.045,11.401c0,0,0.342,4.308,7.835,7.353
		c0,0-9.986-3.032-17.433,1.31c0,0-9.325,2.812-15.292-5.166c-5.964-7.979-8.475-11.042-6.331-16.902
		c2.142-5.857-5.558,7.721,3.232,18.761c0,0,6.59,8.282,13.452,9.792c0,0-21.802,0.402-25.084-26.976
		c-0.658-5.227-9.491,25.589,20.737,29.457c0,0-16.868-8.236-15.238,3.144c1.622,11.383,6.913,10.129,6.913,10.129
		s-9.394-9.193-1.311-10.153c8.094-0.958-0.871,9.854-5.199,15.413c0,0,7.726-10.193,8.085-2.499
		c0.357,7.694-5.238,8.949-8.648,10.811c-3.42,1.863,4.337-2.17,4.607-8.944c0.274-6.775,1.942,10.457-16.448,8.688
		c-18.385-1.762-24.704-16.204-17.567-20.544c0,0-14.882,10.53,7.61,22.744c0,0-13.719-3.938-19.069-12.535
		c0,0,0.389,12.619,28.753,16.184c0,0,9.352,1.803,15.858-3.762c0,0-21.116,9.325-35.493,1.388c0,0,5.646,7.362,9.088,9.502
		c3.439,2.139,6.615,11.974-7.125,6.187c-13.737-5.788-19.915,2.86-18.032,5.004c1.884,2.147-4.693-3.674,4.956-4.331
		c9.654-0.659,13.415,3.328,15.918,5.777c0,0,21.456-5.021,28.254-14.284c6.788-9.264-0.324-1.228-0.324-1.228
		s-13.914,15.451-26.049,17.659c-12.129,2.206-11.486,5.899-9.291,8.35c0,0,5.606-0.025,5.318,3.362
		c-0.291,3.387,0.352,7.079-2.75,8.937c0,0-14.167-0.089-15.057,7.303c0,0,10.271-0.973,11.238,4.565c0,0-10.743-0.414-14.457,3.757
		c-3.71,4.173-5.073,10.641-3.189,12.941c0,0-6.066,0.949-6.043,4.643c0,0-3.73,1.404-6.559-3.202c0,0,1.453,7.843,13.125,7.329
		c0,0-10.271,1.431-13.568-3.172c0,0,0.038,6.002,13.124,6.869c0,0,6.562,3.663-1.378,3.699c-7.942,0.035-8.419-1.348-10.294-2.727
		c-1.882-1.375,0.508,6.463,3.796,9.218c0,0,21.94-1.482,12.527-13.443c0,0,5.235,15.675-14.844,17.147
		c0,0,11.221,1.337,13.07-1.441c1.853-2.779,5.658,7.821-0.377,14.312c-6.033,6.492-8.359,7.424-6.472,10.647
		c1.888,3.223-1.366,6.01,1.914,7.38c3.278,1.37-7.943,0.034-11.208,0.971c-3.263,0.938,2.334-0.931-0.512-7.844
		c-2.849-6.914-8.451-6.889-9.44-15.659c-0.993-8.766-2.789,2.322,10.269-0.969c13.061-3.287,14.463-2.832,15.844-5.608
		c1.386-2.778-12.111,5.13-15.875,0.532c-3.769-4.602,6.177,17.053-2.592,33.252c0,0-5.109,5.562-10.26,3.277
		c0,0,4.163-6.481,20.077-1.474c15.913,5.008-8.006-10.584-13.041,6.061c0,0-0.422,7.387,4.275,11.523
		c4.695,4.134-5.621-2.286-1.467-10.151c0,0,0.994,9.229,8.978,16.119c0,0,9.408,10.116,5.651,7.362
		c-3.755-2.756-10.313-5.496-10.313-5.496s17.404,18.854,20.184,15.146c2.779-3.704-2.857-8.758-8.512-16.582
		c-5.651-7.824,8.076,21.202-9.766,7.429c-17.835-13.77,10.847,15.65,12.724,17.95c1.883,2.301-0.909,3.699-0.909,3.699l-8.907-5.04
		c0,0,1.91,6.917,5.208,11.059c3.295,4.138,2.853,7.834,2.853,7.834s1.319-13.395,6.462-12.496c5.142,0.901-1.404,0.009,0.486,3.23
		c1.885,3.224,4.69,3.21,3.307,6.451c-1.383,3.236-2.146,1.506,6.286,4.7c8.428,3.193,4.914,3.443,6.812,8.515
		c1.9,5.07,7.38,9.651,7.38,9.651s-0.139,0.701-0.568,6.245c-0.434,5.541,14.761,8.515,14.761,8.515s-8.515-11.354-9.083-28.953
		c-0.568-17.599,11.066-26.963,12.49-23.276c1.428,3.686,0,5.109,0,5.109s-10.219,29.521,1.703,43.713
		c8.165,9.72-5.11-36.333,0-36.9c4.898-0.545,4.542,38.035,4.542,38.035s-1.928,2.075,2.27,1.136c4.198-0.942,0.012-7.7,0-9.083
		c-0.008-1.386,1.136-19.869,1.136-19.869l0.568-14.193c0,0-3.553-9.704-1.692-11.098c1.861-1.393-0.96-4.613-0.96-4.613
		s0.69-6.067,2.085-6.998c1.399-0.93-0.429-4.888,0-11.354c0.43-6.464,3.406-14.192,3.406-14.192s2.792-22.199,5.109-24.979
		c2.318-2.781-8.092,10.882-9.95,12.278c-1.858,1.392-4.66,1.403-4.66,1.403s6.487-7.876,11.585-14.823
		c5.093-6.95,12.498-18.061,14.312-26.843c1.815-8.779,7.873-10.652,9.731-12.51c1.858-1.854,12.587-3.748,19.615-1.008
		c7.025,2.739-3.3-4.603-3.3-4.603s10.267-1.894,17.754,0.843c7.493,2.738-15.002-9.166-14.097-14.249
		c0.904-5.084,5.661,9.209,18.77,13.768c13.108,4.558-12.146-0.408-7.156-23.976c4.991-23.569-10.668,12.05,12.751,22.103
		c0,0-7.502-4.12-7.564-14.278c0,0-0.379,14.314,27.199,16.5c0,0-14.541-9.17-9.542-31.815c0,0-0.763,27.708,11.401,30.883
		c0,0-0.528-10.154-0.586-19.387c-0.057-9.234-5.043,15.72,3.854,19.372c8.898,3.655,15.415-0.068,15.415-0.068
		s-18.287-10.997-11.931-40.576c6.359-29.577-15.21,32.386,17.062,39.167l13.084,0.868c0,0-11.716-6.412-14.604-19.789
		c0,0,5.223,13.367,16.473,19.317c0,0,6.065-0.95,5.977-14.802c-0.083-13.847-1.304,15.704-1.304,15.704s6.509-5.106,7.89-8.807
		c1.378-3.7-2.286,8.323-2.286,8.323s3.231-6.479,8.847-5.119c5.612,1.36,11.713,5.95,11.713,5.95s6.549,1.356,9.815,1.342
		c3.273-0.015,11.249,5.028,11.249,5.028s-1.492-13.844-4.799-19.371c-3.3-5.524,7.115,16.59,8.536,19.819
		c1.418,3.222,5.191,8.284,8.952,12.422c3.763,4.139,11.278,10.568,12.703,14.257c1.42,3.687,2.729-11.555,2.7-16.172
		c-0.029-4.616,0.561,15.694-0.798,21.704c-1.37,6.008,6.518-2.8,7.431-6.958c0.904-4.158-2.18,25.403-1.674,31.402
		C421.344,280.025,414.933,293.076,420.326,309.522z"/>
	<path fill="#FFFFFF" d="M309.647,196.034c0,0-9.493-23.044,0.232-37.401c9.723-14.354-1.537-22.153-1.537-22.153l5.149,1.822
		c0,0-1.513-17.999-34.249-23.394c0,0,26.143-2.731,36.178,33.238c0,0,3.799,9.832-4.839,23.414
		c-1.999,3.147,28.168-27.827,23.45-35.191c-4.719-7.37-23.045-24.831-47.809-25.646c0,0,21.009-1.939,27.115,3.113
		c0,0-1.436-5.534-9.867-8.729c0,0,36.712,19.537,33.075,34.941c0,0,22.93-17.953-16.283-39.171c0,0,11.711,5.025,14.54,9.17
		c2.826,4.142-4.263-9.676-4.786-17.523c-0.511-7.847-0.412,7.851,11.341,20.265c0,0,1.318-13.396,9.253-14.354
		c0,0-5.591,2.333-4.561,17.103c1.025,14.768-4.54,21.719-6.851,25.423c-2.314,3.702-7.882,10.192-8.774,16.661
		c-0.892,6.464-3.681,9.247-3.681,9.247s3.652-13.865,11.113-15.745c7.464-1.883,15.788-15.309,15.264-24.539
		c-0.522-9.232,6.65,17.514-9.184,25.433c0,0,14.465-2.833,20.083-0.549c5.618,2.283-22.764-5.284-32.961,7.688
		c0,0,1.816,16.917-7.511,19.268c0,0,3.241-4.632,3.212-9.247c-0.028-4.618-8.88-0.883-13.508,6.06
		C308.627,182.187,307.252,186.808,309.647,196.034z"/>
	<path fill="#FFFFFF" d="M342.259,182.036c0,0,20.917-16.252,22.73-25.03c1.817-8.781-0.632-26.316-2.998-31.844
		c-2.37-5.531-1.367-20.001,9.914-8.048c0,0-16.899-14.084,2.688,31.385c0,0,8.655-10.505,6.058-27.577
		c-0.418-2.737,0.163,26.318-1.684,30.018c0,0,9.995,4.267,11.503-28.214c0.159-3.356-2.302,5.09-2.714,14.324
		c-0.411,9.236-2.247,13.401-6.421,18.959c-4.171,5.56-0.002-0.46-4.218-2.29c-4.212-1.829-7.025-2.738-7.442,5.113
		c-0.417,7.85-0.89,7.389-8.33,12.963c-7.438,5.574,1.376-4.623,21.457-5.173c20.086-0.552,12.57-6.983,12.57-6.983l10.742,0.416
		c0,0,6.53-2.337,5.101-6.95c-1.433-4.61-3.551,4.789-9.124,9.431c-5.587,4.642-0.048,17.851-0.048,17.851
		s12.564-7.443,18.08-21.779c5.517-14.337,3.639-15.251-4.336-20.759c-7.975-5.504,18.268,7.307,9.499,24.89
		c0,0-14.358,19.455-18.648,31.171c0,0,21.138-6.25,26.574-33.514c2.058-10.328,3.272,0.293,0.062,10.002
		c-3.203,9.71-13.885,19.762-18.548,21.629c-4.66,1.868,32.15-12.763,38.292-2.632c6.129,10.129-0.544-12.003-21.47,3.325
		c0,0-0.882,8.777,19.202,8.226c0,0-24.146-2.506-29.771-5.254c-5.624-2.744-17.12,7.884-8.017,12.964
		c30.622,17.099,39.705-0.332,37.354-2.166c-2.348-1.837,11.211-0.049,6.101,5.05c-5.106,5.101-17.696,8.389-32.191,6.145
		c-14.493-2.246-25.662-20.662-18.251-30.544c1.245-1.659-16.334-22.088-29.295-2.95c0,0,25.188,44.211,49.487,44.564
		c0,0,8.863-1.424,12.167,3.642c3.298,5.062,9.37,4.576,13.562,2.709c4.189-1.867-2.342-0.453-1.9-5.071
		c0.438-4.618,1.348-7.854,5.548-9.258c4.195-1.403,11.691-12.045,7.42-8.34c-8.208,7.114-11.972,27.601-6.246,21.881
		c0,0,11.402-19.137,19.398-10.861c0,0-10.298-2.725-8.372,6.039c0,0,0.56,9.46,3.978,13.372c18.19,20.85,8.234-2.347,8.234-2.347
		s14.615,21.177-5.029,17.569c0,0,9.781-4.661,0.882-8.773c-8.901-4.118-14.082-11.019-11.322-17.959c0,0-4.233-3.673-5.104,6.487
		c0,0-7.916,3.73-15.41,0.532c-7.494-3.199,11.685,0.869,17.339,8.695c5.655,7.823,10.84,15.187,6.655,18.437
		s-5.115,3.715-10.741,0.048c-5.636-3.668-11.707-4.564-14.999-7.783c-3.289-3.217,10.448,2.57,20.271,4.835
		c0,0-6.277-8.127-12.353-8.565c-6.081-0.434,48.547,19.485-13.972-18.403c-12.875-7.806-7.542,14.345,1.383,22.616
		c8.93,8.269-7.523-7.97-7.481-1.044c0.043,6.925,4.432,11.675,26.324,25.891c5.241,3.405,4.235,5.982,9.382,5.96
		c5.138-0.023-13.993,4.218-28.552-8.644c-14.562-12.865-13.211-21.642-13.211-21.642s21.015,24.529,31.784,29.1
		c10.774,4.57-28.433-15.726-30.931-41.57c-2.495-25.844-1.414-1.378,3.774,5.986c5.18,7.362-4.689-3.21-2.46-20.306
		c0,0-3.208,10.172-8.334,12.966c0,0,4.15-9.251,3.654-13.406l-2.763,6.013c0,0-1.021-14.305-2.919-18.916
		c-1.896-4.606,4.382,3.37-0.26,8.468c-4.639,5.1-21.758-18.219-25.104-30.668c-3.349-12.451-17.5-9.155-17.5-9.155
		s11.629-33.294,29.261-3.212c0,0,5.389-34.494-32.88-3.545c0,0,2.782-2.784-2.351-2.761c-5.141,0.024-15.44-4.085-16.271,13.001
		c0,0,2.828,4.604,0.979,7.382c0,0,4.157-6.944-1.96-14.765c0,0-4.659,2.326-5.564,6.489c0,0-0.513-6.923,4.143-9.713
		c4.651-2.792-12.109,6.054-10.651,15.282C339.132,204.674,331.554,188.546,342.259,182.036z"/>
	<path fill="#FFFFFF" d="M273.072,98.778c0,0-34.189-13.7-24.752,1.031c9.433,14.731,69.486,31.087,50.325,55.18
		c-6.162,7.752-17.511-11.617-17.511-11.617s-8.769-7.963-21.824-3.905c-6.055,1.881,6.046-5.106,19.185,4.993
		c13.144,10.1,1.63,36.467-7.735,32.814c-9.367-3.653-33.19-28.169-5.772-25.828c8.846,0.752,8.879-0.039,8.879-0.039
		s-23.396-6.361-22.407,2.404c0.989,8.771,9.018,22.123,16.965,23.473c7.95,1.351,9.855,7.804,9.855,7.804s-0.05-8.31,2.266-11.091
		c2.319-2.779,5.134-0.945,5.147,0.902c0.009,1.845-1.819-16.922,2.375-19.246c4.188-2.327,8.375,20.583,8.375,20.583
		s0.382-13.853,8.267-22.662c7.892-8.804-6.679-22.592-11.375-26.724c-4.701-4.135-26.243-13.273-34.717-23.856
		C250.142,92.416,257.166,94.232,273.072,98.778z"/>
	<path fill="#FFFFFF" d="M317.469,101.814c0,0-13.16-13.331-28.59-14.648c0,0-3.729,0.477,8.442,5.04
		c12.174,4.563,22.039,13.292,24.864,16.973c2.826,3.681-10.843-15.188-26.711-13.27C279.607,97.825,309.031,96.77,317.469,101.814z
		"/>
	<path fill="#FFFFFF" d="M246.667,109.361c0,0,11.287,11.49,21.131,17.91c0,0-38.697-12.907-33.526-8.314
		c5.165,4.596,30.285,12.482,30.285,12.482l-16.808,1l7.031,4.126c0,0-26.157,0.115-30.839-1.25
		c-4.681-1.366,19.129-4.241,32.203-4.761c13.077-0.52-25.641-16.199-36.83-13.379c0,0-8.11-2.117,0.767-1.696
		c0,0,24.309,2.663,31.321,4.017c7.019,1.353-24.344-8.665-31.813-8.168c0,0,6.491-7.417,28.514,3.105c0,0,7.039,5.047,7.986,7.351
		C257.037,124.088,251.364,113.495,246.667,109.361z"/>
	<path fill="#FFFFFF" d="M252.34,145.038c0,0-13.536,1.908-23.316,7.03c-9.775,5.121-19.542,12.551-35.426,11.698
		c-15.889-0.854,6.03-6.951,6.03-6.951s-3.776-6.448-14.958-1.32c-11.176,5.126-11.176,5.126-11.176,5.126
		s24.221-10.727,28.837-19.98c0,0,2.311-3.701,18.22,0.844c0,0,18.712,4.072,25.707,2.656c7.003-1.417-15.38,5.146-34.109-2.157
		c0,0-22.866,3.795,21.985,4.981c0,0-20.997,4.247-33.151,2.916c-12.152-1.331-2.534,18.479,21.661,2.982
		c0,0-14.149,2.525-18.348,3.467C200.098,157.272,243.937,145.076,252.34,145.038z"/>
	<path fill="#FFFFFF" d="M168.887,171.263c0,0,12.646,5.485,15.93,7.778l5.149,1.826c0,0-13.63-13.33-19.243-14.229
		c-5.61-0.898,6.979-4.186,11.19-4.205c4.2-0.019-20.093-0.372-16.801,3.307C168.41,169.417,170.737,168.486,168.887,171.263z"/>
	<path fill="#FFFFFF" d="M246.428,171.383c0,0-4.32,5.404-9.882,12.816c-5.561,7.412-3.619,19.715,1.692,22.307
		c4.688,2.287,5.63,4.131,5.63,4.131s-13.089-2.252-14.065-9.635c-0.983-7.382-1.01-11.538,3.162-16.174
		C237.143,180.193,244.607,178.776,246.428,171.383z"/>
	<path fill="#FFFFFF" d="M226.436,186.705c0,0-42.882-10.272-40.921,5.106c0,0,32.108,4.165,25.088,2.352
		c-7.017-1.817-29.43-0.179-25.663,4.422c3.766,4.6,14.038,4.397,14.038,4.397s-16.669-1.616-15.239,2.994
		c1.431,4.613,10.616,4.878,17.63,5.771c7.016,0.892,13.084,0.402,13.084,0.402s-18.198,2.852-23.818,1.493
		c-5.61-1.362-26.211-9.427-19.32-2.067c3.706,3.952,15.619,7.163,24.025,7.124c8.407-0.037-28.094-4.095-30.842-2.172
		c-6.203,4.337,14.055,7.326,12.66,7.33c-1.406,0.007-28.978-1.719-11.281-11.03c0,0-2.391-8.298,13.969-6.986
		c0,0,4.233,5.061,7.045,5.97c2.807,0.912-11.248-5.491-6.642-16.13c0,0,5.578-4.179,12.595-3.287
		c7.009,0.892-17.309-3.617-28.972-0.333c0,0-2.841-6.451-9.381-6.884c-6.54-0.434,3.699-6.018,25.205-3.344
		c21.504,2.675-15.423-1.316-15.875,1.457c-0.448,2.772,15.443,4.546,37.359-1.553c0,0,14.433-8.374,31.739-4.757
		c0,0-23.354,0.104-23.804,3.338C208.667,183.553,215.641,178.441,226.436,186.705z"/>
	<path fill="#FFFFFF" d="M160.643,197.154c0,0-8.916-5.501-12.622-0.868c0,0-7.895,7.422-2.257,12.475c0,0-5.127,1.871-6.047,4.644
		c0,0,6.567,3.667,6.126,8.281c0,0,0.898-5.542-1.447-7.838c-2.352-2.299,14.043,5.475,3.842,17.063c0,0,8.924,7.81-1.283,19.399
		c-10.203,11.585-6.978,4.646-5.556,7.41c0,0-0.93,0.927,1.432,5.536c2.363,4.604,2.363,4.604,2.363,4.604s-3.299-5.523-0.51-7.384
		c2.792-1.86,4.662-1.405,4.662-1.405s-3.747-1.37-3.289-3.216c0.456-1.853,9.283-9.276,7.341-20.809
		c-1.938-11.535,1.498,15.229,4.798,19.831c3.296,4.603,11.226,2.257,11.226,2.257l-6.98,4.187c0,0,11.199-1.433,15.873-0.53
		c4.679,0.9,11.229,2.26-0.399,10.157c-11.627,7.902-11.197,2.82-11.197,2.82s3.779,6.449,7.518,6.431
		c3.737-0.016,10.281,0.416,10.281,0.416s9.369,4.576,2.843,6.45c-6.528,1.877-15.931-7.47-14.984-4.704
		c0.956,2.766,7.576,15.819,7.576,15.819s3.297,4.604,14.035,3.17c10.733-1.435-1.359,6.467-20.125-5.912
		c-18.761-12.384,23.56,7.743,10.352-13.131c-4.733-7.48-4.786,6.642-5.679,13.11c-0.892,6.465-0.916-21.542-20.519-19.148
		c-19.604,2.396,12.71,18.708,4.124,12.293c-38.479-28.761-32.256-7.612-26.468,0.118c11.935,15.952,52.483,26.239,32.582,6.32
		c-2.39-2.395,11.239,4.566,8.935,9.193c-2.306,4.629-20.996,4.249-30.869-5.864c-9.872-10.114-8.438-5.043-7.015-1.354
		c1.426,3.684-17.389-17.008-8.543-21.203c0,0-4.678-1.363-4.657,1.406c0.015,2.771,1.804-10.164,20.544-1.476
		c18.738,8.69-3.326-9.217-13.13-7.79c-9.799,1.429,22.865-3.793,26.234,11.888c0,0-3.771-5.061-4.747-11.985
		c-0.974-6.919,0.512,6.926,13.616,11.944c0,0-6.58-7.356-7.057-8.741c-0.47-1.381,0.477,1.385,0.477,1.385s0.009,1.384,9.341-0.042
		c9.336-1.427,16.248-16.691-3.328-9.68c-19.575,7.013,4.619-8.794,4.619-8.794s-14.403,12.53-16.917-15.62
		c-2.513-28.154,10.227-8.357,10.227-8.357s-11.337-19.803-13.087-0.865c-1.748,18.935-3.796-9.679,5.035-16.645
		c8.829-6.963-6.061,2.336-6.061,2.336s-3.76-4.137-7.03-3.66c-3.263,0.474-1.432-5.535,7.001-0.958
		c8.438,4.582-16.837-3.619-1.013-13.381C154.076,193.028,160.643,197.154,160.643,197.154z"/>
	<path d="M152.295,357.857c0,0-2.044-28.614,8.727-24.046C171.792,338.381,143.603,311.727,152.295,357.857z"/>
	<path d="M196.082,322.579c0,0,52.797-7.947,74.369,6.245c0,0,8.516,14.193,0.568,27.818c0,0-7.948,15.895-21.005,21.005
		c0,0-21.005,5.109-48.823-1.136c0,0-16.463-6.245-19.302-21.005c0,0,1.703,21.005,26.682,27.25c0,0,36.901,2.271,42.011-1.136
		c0,0,17.598-6.812,26.681-27.817l7.381-9.65c0,0-4.542,5.109-6.812,5.109c-2.271,0-1.136-9.083-2.838-14.76
		c-1.703-5.677,7.38,6.812,5.677,9.651c0,0,3.406-0.568,9.083-1.704c0,0,5.678-0.567,7.947,2.839
		c2.271,3.406,1.706-3.406,2.838-9.083c1.137-5.677,1.706-2.27,1.706-2.27s-3.408-3.407-3.975,0.567
		c-0.569,3.974,3.406,6.812-2.271,6.245c-5.677-0.568-10.786-2.839-5.109-4.542c5.678-1.703-6.245,1.703-10.786-3.974
		c-4.542-5.677-21.005-12.489-25.547-13.057c-4.541-0.568-48.822-2.839-57.337,0C188.701,322.011,196.082,322.579,196.082,322.579z"
		/>
	<path d="M194.947,326.553c0,0-9.084-1.136-12.49,19.302c0,0,0,19.87,10.218,27.818c10.218,7.947-14.76-0.568-12.489-35.198
		C180.187,338.475,190.972,310.657,194.947,326.553z"/>
	<path d="M201.759,307.251c0,0,1.135,25.547,0,36.901c-1.136,11.354-0.568,25.546-0.568,25.546s5.677-35.197,5.677-43.146
		c0-7.948,1.703-14.192,9.651-18.167c7.948-3.974,20.437-1.135,22.141-1.135c1.703,0,11.922-2.271,13.624-9.083
		c1.023-4.093,0.613-2.243-1.357-0.238c-1.308,1.333,0.103,1.599-2.616,1.374l0.568-2.839l-5.489,2.839l2.083-3.407
		c0,0-9.462-2.271-12.301,1.136c-2.838,3.405,0.947-1.704,0.947-1.704l-5.866,0.947l3.027-2.082c0,0-10.974,2.082-10.786,5.677
		c0.149,2.834,2.271-1.704,2.271-1.704l1.703-3.406c0,0-5.677,1.135-10.219,5.676c-1.515,1.515-3.407,1.515-3.407,1.515v-2.082
		c0,0-5.109,2.46-5.677,7.002c-0.567,4.541-0.567-3.596-0.567-3.596S202.327,304.98,201.759,307.251z"/>
	<g>
		<g>
			<path d="M246.987,335.353c-5.75,0-10.41,4.385-10.41,9.793c0,5.408,4.66,9.794,10.41,9.794c5.748,0,10.407-4.386,10.407-9.794
				C257.394,339.738,252.734,335.353,246.987,335.353z M247.934,339.625c1.672,0,3.027,1.275,3.027,2.849
				c0,1.573-1.354,2.848-3.027,2.848c-1.675,0-3.03-1.275-3.03-2.848C244.904,340.9,246.259,339.625,247.934,339.625z
				 M246.795,353.87c-9.839,0.356-9.459-7.121-6.433-6.054c0,0,4.165,5.343,10.598,3.562c0,0,3.014-0.955,4.06-3.128
				c0.345-1.604,0.103-2.927,0.103-2.927c0.41,1.155,0.285,2.122-0.103,2.927C254.505,350.639,252.683,353.656,246.795,353.87z"/>
		</g>
	</g>
	<g>
		<g>
			<path d="M354.471,338.475c-5.75,0-10.409,4.448-10.409,9.935c0,5.488,4.659,9.936,10.409,9.936
				c5.749,0,10.408-4.448,10.408-9.936C364.879,342.923,360.22,338.475,354.471,338.475z M355.418,342.809
				c1.673,0,3.028,1.293,3.028,2.891c0,1.595-1.355,2.891-3.028,2.891c-1.674,0-3.028-1.295-3.028-2.891
				C352.39,344.103,353.744,342.809,355.418,342.809z M354.659,356.177c-9.839,0.362-9.461-7.225-6.432-6.14
				c0,0,4.163,5.418,10.597,3.612c0,0,3.013-0.968,4.059-3.171c0.347-1.629,0.104-2.972,0.104-2.972
				c0.41,1.173,0.284,2.155-0.104,2.972C362.367,352.902,360.544,355.96,354.659,356.177z"/>
		</g>
	</g>
	<path d="M265.058,321.16c0,0,17.031,8.231,21.573,11.354c0,0,11.354,1.419,15.044-1.704c0,0,19.019-11.354,36.617-11.638
		c0,0,38.887-0.284,42.861,0c0,0-7.097,2.838-2.839,3.69c0,0-44.563-1.136-50.525,1.419c-5.961,2.554-15.612,5.677-20.153,13.625
		c0,0,2.838-5.677-3.974-4.542c0,0-2.271,6.812-0.568,12.206c0,0,4.258,0.567,4.258,2.554c0,1.987,1.986,5.109,4.541,12.206
		c2.556,7.097,2.556,7.097,2.556,7.097s-7.38-13.341-9.083-17.6c-1.703-4.257,1.42,11.071,14.761,22.425
		c13.341,11.354,26.966,17.031,66.988,9.935c0,0-1.136,2.555,0.567,2.271c0,0-29.521,8.516-52.513,0.284
		c0,0-23.276-3.975-34.345-32.927c0,0-2.271-8.232-9.936-8.799c0,0,8.517,3.406,9.083,1.136c0.567-2.271-0.566-9.651-0.566-9.651
		s-11.923-0.284-14.194-0.853C282.94,333.082,275.276,325.701,265.058,321.16z"/>
	<path d="M273.005,360.331c0,0-3.406,19.87-3.69,26.682c0,0-2.271,9.935-5.96,14.761c-3.69,4.824-3.123,6.812-3.123,9.935
		c0,0-1.703-4.826,1.419-9.367c0,0-9.65,6.812-9.368,15.044c0,0,0.285-12.49,10.219-17.6c0,0,3.122-4.541,4.541-9.65
		c1.42-5.11,1.704-21.573,4.542-26.966C274.425,357.776,273.005,360.331,273.005,360.331z"/>
	<path d="M263.355,416.25c0,0,1.418,4.542,9.65,9.936C273.005,426.186,258.529,416.533,263.355,416.25z"/>
	<path d="M317.003,427.604c0,0,3.974-7.947-3.69-15.896c0,0-9.651-7.381-10.503-17.6c0,0,3.407,9.084,8.231,13.341
		C315.867,411.709,321.545,418.805,317.003,427.604z"/>
	<path d="M295.998,419.941c0,0,5.394,6.527,0.568,8.229c0,0,9.083-1.419,5.392-4.541c0,0,5.961,0,5.678,1.703
		C307.636,425.333,304.513,421.927,295.998,419.941z"/>
	<path d="M262.22,426.752c0,0,7.664,3.69,11.354,1.703c0,0-3.69-3.688-4.259-4.541c-0.465-0.697,3.063,3.738,6.225,5.84
		c0.704,0.466,1.389,0.818,2.008,0.973c3.405,0.853,6.812,1.703,9.083-3.69c0,0,1.135,9.368-12.773,2.839
		C273.857,429.875,273.574,433.281,262.22,426.752z"/>
	<path d="M279.534,446.623l-3.122,4.824c0,0-0.283-1.986,0.568-3.404c0.852-1.42-0.284-2.271-0.284-2.271l-2.838,2.271l1.703-3.976
		l-2.271,1.137l1.703-3.691l-3.69,0.568c0,0,1.419-1.988,1.987-4.541c0.568-2.556,0.852-4.259,0.852-4.259s3.973,1.137,5.961,0.283
		c1.987-0.852-6.528-5.394-6.528-5.109c0,0.285-1.704,2.271-5.11,1.136c-3.406-1.136,4.258,5.961,1.704,5.11
		c-2.555-0.852-4.258,1.42-5.394,1.703c-1.135,0.284-0.851-1.703-0.851-1.703s-4.258,3.405-4.826,4.542
		c-0.567,1.135,0.568-1.137,0.568-1.137l-3.69,2.556l3.69-4.541l-7.096,5.96l2.271-5.11c0,0-6.245,5.677-7.38,6.245
		c-1.136,0.568,1.419-2.554,1.419-2.554l-2.839,4.542l-1.136-1.42l-2.555,1.703h-0.851l-3.69,3.405l0.284-0.85l-1.987,4.257
		l-0.567-1.42l-1.704,4.259l-0.284-2.555c0,0-1.987,4.541-0.851,8.23c1.135,3.69-1.42-5.108-1.42-5.108s0.284,7.664,0,9.366
		c-0.284,1.703,0.284,4.541,0.284,4.541s0.567-4.258,1.987-4.541s1.135,2.839,1.135,2.839s0.852-1.419,1.987-3.122
		c1.136-1.704,1.703,1.419,1.703,1.419s1.419-3.406,2.838-4.825c1.419-1.419,1.705,0,1.705,0l0.851-1.988l2.555,1.988l1.704-1.419
		l1.419,1.986c0,0,1.704,0.852,2.555-0.284c0.851-1.136,0.851,0.567,1.419,1.419c0.568,0.853,1.134,3.123,1.134,3.123l2.271-3.975
		l1.42,2.839l1.987-1.135l0.568,1.418l1.135-1.134l1.704,0.567l2.554-1.419c0,0,0.851-1.137,1.703-1.137s3.407-0.567,3.407-0.567
		l0.852-1.418c0,0,2.555-0.854,2.555-1.704c0-0.852,1.702-1.987,1.702-1.987S279.25,449.461,279.534,446.623z"/>
	<path d="M278.967,457.125c0,0,0-3.343,0.667-5.803c0.244-0.904,0.579-1.688,1.035-2.145c1.704-1.704,0.284,2.553,0.284,2.553
		s1.136-4.257,1.703-5.392c0.568-1.135,3.691-3.406,3.691-3.406l0.852,5.96l1.986-2.27l0.851,2.555l2.271-7.665l0.851-3.406
		c0,0,0.285,4.541,0.852,5.678c0.567,1.135,1.987-3.122,1.987-3.122s1.702,1.985,1.988,3.122c0.284,1.135,1.986,3.122,1.986,3.122
		l-0.283-1.702c0,0,0.283,2.839,0.85,3.688c0.569,0.853,1.988,2.271,1.988,2.271s0.283-3.975-0.283-5.109
		c-0.569-1.136,0.85,0.852,1.986,0.852c1.135,0,2.839,1.986,2.839,1.986l-0.284-3.688l1.987,3.688l0.283-1.703l0.853,2.556
		l1.419,0.851l0.508,0.579l1.479,1.692l-0.853-5.394l2.271,4.542l2.271-0.568c0,0-0.284,1.703,0.284,2.555
		c0.567,0.852,1.135-2.271,1.135-3.406s1.704,3.123,2.838,3.975c1.136,0.852,2.839,3.122,2.839,3.122l-2.839-6.528l5.961,4.258
		l-1.42-3.122c0,0,3.976,2.839,4.259,4.257c0.285,1.42,3.407,1.704,3.407,1.704s-1.988-2.839-1.136-2.555
		c0.851,0.283,1.702,0.566,2.27,1.419c0.568,0.852,0.568,0.852,0.568,0.852l3.123,2.838l-0.283-3.689c0,0,2.27,2.556,3.122,3.123
		c0.851,0.566,0.566-0.854,0.851,0.566c0.284,1.419,1.704,0,1.704,0s0.567,1.419,1.42,2.271c0.85,0.853,1.702,1.42,2.27,2.557
		c0.569,1.134,0.569,1.134,0.569,1.134l-1.989,0.285c0,0,0.853,2.271,0.853,3.122c0,0.851,0,3.973,0,3.973s0,1.42-0.283,2.839
		c-0.286,1.419-0.853,5.677-0.853,5.677h-1.136c0,0-1.136-2.838-1.136-3.689s0-1.702,0-0.852l-1.703,1.987l-2.554-3.975
		l-3.123-3.974l-2.554-1.136l-2.556-2.27c0.284,2.839,0.284,2.839,0.284,2.839l-1.986-1.42l-1.42-1.703h-2.555l-1.986-1.419
		l-3.975-0.853l-3.122,1.136c0,0,0.283,0.283-1.703,0c-1.988-0.283-1.988-0.283-1.988-0.283l0,0l-0.851,2.553l-1.419-0.85
		l-4.542-0.853l1.42,1.702l-2.555-0.282l-0.284,1.702l-4.258-1.42l0.567,1.989l-2.838-2.271l-1.419,1.702l-1.703-2.27l-1.419,0.283
		l-1.419-0.853l-1.703-1.986l-1.418,0.284v-2.271l-1.704-1.137l-1.986,2.84l-0.568-3.405l-1.987,2.27l-1.42-3.123l-0.567,3.689
		l-0.852-2.836l-0.567-1.42l-0.853,1.134l-0.852-2.839l-1.419,0.286C275.844,459.681,276.412,455.422,278.967,457.125z"/>
	<path d="M246.608,469.331c0,0,3.122,3.69,21.856,6.812c0,0-17.599-1.987-19.87-3.689c-2.271-1.703,2.271,6.245,7.38,9.367
		C255.974,481.82,243.484,473.588,246.608,469.331z"/>
	<path d="M282.94,477.562c0,0,18.167,1.419,37.186,0C320.126,477.562,300.255,482.389,282.94,477.562z"/>
	<path d="M320.126,477.562c0,0,11.922-3.407,12.205-0.283c0,0-1.136,2.838-12.205,6.812c0,0,12.205-6.528,9.65-6.812
		C327.221,476.994,320.126,477.562,320.126,477.562z"/>
	<path d="M269.883,498.284c0,0,5.109-1.704,21.005,0.283c0,0,9.083-0.283-8.232,4.259c0,0,10.502-3.407-3.123-3.123
		C265.909,499.986,264.206,498.851,269.883,498.284z"/>
	<path fill="none" stroke="#000000" stroke-width="2" d="M467.446,351.154c8.325-0.756,11.353,13.625,11.353,13.625
		c6.434,6.435-3.027,26.871-5.299,31.034c-2.271,4.164-5.299,15.519-9.841,29.143c-4.541,13.625-14.382,26.492-17.03,31.034
		c-2.651,4.541-9.461,2.649-17.032,3.405c-7.571,0.759-7.947-4.541-7.947-4.541c-3.786,10.598-18.168,37.848-32.548,59.041
		c-14.383,21.196-43.525,37.091-49.202,39.362c-5.678,2.271-13.245,5.677-21.573,7.947c-8.327,2.271-22.708,0-27.626-0.379
		c-4.918-0.38-10.598,1.136-19.302,0c-8.705-1.135-14.384-1.514-24.979-12.868c-10.596-11.354-19.681-26.871-25.359-40.874
		c-5.677-14.004-10.219-54.878-10.597-64.341c-0.379-9.462-9.46-32.169-10.975-37.847c-1.515-5.677-2.271-23.466-2.271-23.466
		c-1.893-1.134-6.434-4.541-6.434-4.541s-1.894-3.406-6.436-9.461c-4.542-6.055-9.842-26.871-7.948-31.035"/>
	<path fill="none" stroke="#000000" stroke-width="2" d="M197.47,381.053c0,0-3.311,18.922-3.973,24.221
		c-0.664,5.299,1.986,20.059,2.647,24.601c0.664,4.543,4.97,15.139,9.274,16.274c4.305,1.135,4.968-1.515,4.968-1.515"/>
	<path d="M460.253,358.344c0,0,6.436,3.406,6.436,2.271c0-1.136-7.949,1.135-7.949,1.135s5.677,3.406,7.949,2.649
		c2.27-0.755-12.869,1.515-12.869,1.515s12.111,4.163,14.382,3.027c2.271-1.135-16.272-0.377-16.272-0.377
		s18.166,4.541,20.438,3.405c2.271-1.135-0.761,6.434-5.301,4.92c-4.542-1.513-9.839,0.379-9.839,0.379s9.084,5.298,14.76,0.379
		c5.676-4.92-8.327,17.033-22.709-7.191c-14.381-24.222,2.27,20.059,7.569,26.493c5.301,6.435-14.384-13.624-14.761-19.681
		c-0.377-6.055,8.328,22.709,12.869,27.628c4.541,4.921-14.382-4.162-15.518-24.978c-1.133-20.816,0.755,24.6,12.867,29.142
		c12.111,4.542-14.384,8.324-15.895-29.9c-1.514-38.225-3.783,36.712,14.382,45.795c0,0-11.355-7.569-13.248-17.788
		c-1.775-9.601,1.458,14.537,5.62,20.633c0.269,0.392,0.541,0.71,0.815,0.94c4.541,3.783-12.488-12.49-10.598-40.875
		c1.892-28.386,1.515,16.651-3.405,27.628c-4.922,10.976,5.673-30.277,3.025-38.982
		C430.355,367.806,458.738,353.045,460.253,358.344z"/>
	<path d="M322.965,305.547c0,0,11.922,2.839,13.34,3.69l-2.271,0.568l8.232,0.851c0,0-8.232,1.704-5.394,1.704
		s11.923,0.852,11.923,0.852l-6.813,1.419l4.543,0.851l-3.407,1.419c0,0,8.232,0.284,9.368-0.284
		c1.134-0.567,27.249,0.852,27.249,0.852l3.122,1.419h11.355l-0.57-2.838c0,0-10.218-4.543-11.353-4.826
		c-1.136-0.283-5.961,1.419-11.07-2.271c-5.108-3.69-8.516-2.271-8.516-2.271l-5.962-0.851l3.407-0.568
		c0,0-6.813-4.541-18.451-3.407c-11.638,1.136-13.908,1.42-15.043,1.704C325.518,303.844,322.965,305.547,322.965,305.547z"/>
	<path d="M382.856,318.889c0,0,37.752,1.703,39.456,7.38l3.405,0.568l1.703,4.258c0,0-3.69-0.284-4.258,1.42
		c-0.567,1.703,0,4.257,0,4.257l3.69,0.567l1.419,1.987l-0.283,1.419c0,0-10.502-0.568-11.354,0.283
		c-0.852,0.853-3.122,7.38-7.096,18.167c-3.974,10.788-4.826,18.167-19.019,24.128l0.284-2.555c0,0,9.65-4.825,12.772-13.056
		c3.122-8.232,7.949-23.844,10.219-26.398c2.271-2.556,3.976-3.975,3.976-5.394s1.136-9.367-6.245-11.071
		c-7.38-1.703-26.398-4.541-26.398-4.541L382.856,318.889z"/>
	<path d="M407.269,359.479c0,0,1.986-18.451-0.284-23.276c-2.271-4.825-9.651-11.921-13.626-12.206c0,0,6.812,6.246,7.663,9.084
		c0,0,2.272,6.245-4.825,0c0,0,6.245,4.825,6.813,13.341c0.567,8.515,2.839,20.721-7.38,30.372c0,0,12.489-10.502,11.069-33.21
		c0,0-0.283-7.38-2.839-10.502c-2.554-3.123,2.271,3.974,1.988,14.76C405.565,358.628,407.269,359.479,407.269,359.479z"/>
	<path d="M338.292,339.042c0,0,7.663-9.083,13.907-8.516c6.247,0.567,18.453,5.677,24.979,16.747v-2.555c0,0,6.245,3.69,4.259,6.245
		c-1.987,2.555-3.974,3.406-3.974,3.406s8.798-1.418,6.812-7.096c-1.986-5.677-19.019-20.438-27.817-22.141
		C347.658,323.431,340.562,334.784,338.292,339.042z"/>
	<path d="M335.737,354.37c0,0,15.896,7.948,39.455,0.568C375.192,354.938,358.16,366.008,335.737,354.37z"/>
	<path d="M341.697,323.998c0,0-17.313,0.568-22.991,5.961c-5.677,5.394-10.502,2.839-11.07,14.193
		c-0.567,11.354,5.677,19.585,7.948,22.992c2.271,3.405,11.354,9.083,11.354,9.083s-18.166-18.734-18.166-29.521
		C308.771,335.92,323.248,325.985,341.697,323.998z"/>
	<path d="M344.536,324.282c0,0,33.778-1.136,40.023,1.986c6.245,3.123,9.082,4.258,11.637,6.813c0,0-7.946-7.665-13.907-8.516
		C376.328,323.714,347.092,323.431,344.536,324.282z"/>
	<path d="M330.911,378.214c0,0,9.367,5.393,24.41,4.825c15.046-0.567,40.875-0.284,46.269-20.721c0,0-1.135,12.207-15.896,17.6
		C370.936,385.31,338.575,386.446,330.911,378.214z"/>
	<path d="M206.583,325.133c0,0,21.29-4.542,38.604-1.419c0,0-38.036,3.122-39.739,4.826"/>
	<path d="M268.464,339.326c0,0-0.284-9.367-15.896-13.625c0,0-11.355-1.987-20.438,1.135c-9.083,3.123,10.219-2.839,20.722,0.284
		C252.852,327.121,264.206,331.094,268.464,339.326z"/>
	<path d="M264.773,350.964c0,0-20.153,4.258-32.926,4.542c0,0,20.154-0.284,27.534-2.271s9.651-2.554,9.651-2.554L264.773,350.964z"
		/>
	<path d="M248.594,328.256c0,0-15.896,0.568-22.424,11.354c0,0-3.407,5.678-3.69,7.38c0,0,2.554,5.109,7.096,6.813
		c0,0,4.542,2.555,7.948,3.123c0,0-12.205-0.568-13.625,0.568c-1.419,1.135,1.419-1.136,1.419-1.136l1.986-1.987
		c0,0-7.664-2.838-9.083-3.406c-1.419-0.567,3.122-5.677,1.136-13.341c0,0,8.232-9.083,12.772-9.367
		C236.672,327.972,242.633,325.133,248.594,328.256z"/>
	<path d="M421.65,283.029l2.271-8.705l-4.541-7.191v7.948c0,0-4.163-4.162-5.298-4.919c-1.137-0.758-4.165,4.162-3.029,6.433
		s0,11.733,0,11.733L405,281.515c0,0,4.921,11.354,5.675,12.49c0.757,1.136,2.65,6.813,2.65,6.813s1.134,3.406,1.134,4.542
		c0,1.135,0.379,17.787,0.379,17.787s2.272,1.136,2.65,3.028c0.377,1.892,2.651,11.353-2.271,17.409
		c-4.922,6.057,4.165,38.227,12.489,45.795c0,0-4.163,14.38,7.567,20.816c0,0-10.597-14.383-3.783-24.601
		c6.813-10.219-0.307-1.27-0.307-1.27s-14.076-6.3-12.939-37.335l2.271-10.597c0,0,3.408,16.653,3.786,20.06
		c0.376,3.407-2.652-22.331-1.895-25.736c0.759-3.406-2.271-6.435-2.271-6.435s-7.946-18.167,3.786-21.574"/>
	<path d="M283.887,578.992c0,0,19.303,21.195,24.223,21.195c4.919,0,13.245-4.922,13.245-4.922s-1.515,5.3-13.625,7.57
		C295.621,605.107,268.37,576.721,283.887,578.992z"/>
	<path d="M213.112,468.479c0,0-29.52,36.332-38.036,61.312c0,0-9.65,3.975-10.786,9.083c-1.136,5.11-12.49,24.411-18.734,28.386
		c-6.246,3.974-8.516,5.109-8.516,5.109s-10.787,45.417-14.761,55.635c-3.974,10.22-18.167,36.333-15.896,38.036
		c2.271,1.704,26.682-45.983,30.088-60.177c3.406-14.192,9.083-22.709,9.083-22.709s0,35.199-0.568,39.741
		c-0.568,4.54-11.922,10.786-11.354,21.572c0.568,10.785,1.136,16.464,1.136,16.464s5.109-15.896,5.677-18.735
		c0.568-2.839,5.11-14.192,9.083-19.301c3.973-5.109,1.136-34.063,3.406-38.605c2.271-4.54,11.921-45.984,22.14-47.687l18.735,1.137
		c0,0-17.031-1.137-14.761-7.38c2.271-6.246,26.114-49.959,32.927-53.366L213.681,498c0,0-18.167,21.005-18.734,26.114
		c0,0-2.271,13.057,5.108,15.896l6.245,0.566c0,0-26.682,2.839-47.688,49.959l-3.406,14.76c0,0,17.599-45.414,32.359-48.253
		c0,0,3.974,6.243,2.271,27.248c0,0,4.542-29.52,1.135-30.654c0,0,23.276-19.304,32.359-18.168v45.417
		c0,0,3.974-52.229,3.974-58.475c0-6.244-9.083-8.516-9.651-22.707C217.087,485.511,213.112,479.833,213.112,468.479z"/>
	<path d="M223.331,584.858c0,0,12.49,25.547,57.907,38.604c0,0,29.52,12.489,59.609,3.973c0,0,47.119-14.191,52.795-34.629
		c0,0-7.947,48.256-9.082,53.932c0,0-10.22,9.651-29.521,13.057c-19.301,3.408-61.311,8.517-80.045,1.137
		c-18.734-7.381-50.526-20.438-51.662-24.979V584.858z"/>
	<path fill="none" stroke="#000000" stroke-width="2" d="M224.467,566.124c0,0-3.407,76.072-2.271,85.155
		c1.136,9.084-0.567,28.386,14.761,37.47c0,0-87.994-22.141-97.646-41.442"/>
	<path d="M414.648,470.183c0,0-11.354,23.275-15.329,57.906c0,0,4.541-12.49,5.11-10.787c0.567,1.703,14.762,21.004,14.762,21.004
		s-9.084-23.275-9.652-28.952s18.167,32.359,21.572,42.012c3.406,9.648,6.245,13.057,6.245,13.057s-4.542-28.954-13.626-44.85
		c0,0,25.547,44.28,26.115,52.229c0,0,13.056,6.245,21.005,37.468c0,0,7.948,23.844,10.787,30.088c0,0-5.109-31.224-14.191-52.796
		c-9.085-21.573-14.194-31.791-14.194-31.791s7.948-6.244,27.818,38.604c19.868,44.85,19.301,44.85,23.275,55.636
		c3.974,10.785,17.599,32.359,30.088,45.983c0,0-31.792-51.66-34.062-66.989c-2.271-15.328-19.301-45.416-19.87-47.119
		c-0.567-1.702,0.569,1.703,0.569,1.703l6.811,3.974c0,0-8.514-10.786-5.676-10.786s10.218,9.083,10.218,9.083
		s13.058-2.837,14.761-0.568c1.705,2.271,11.921,19.872,15.896,24.979c3.975,5.109,16.464,18.734,16.464,18.734l15.329,10.22
		l13.624,14.19v-47.119c0,0-13.624-11.921-17.599-15.327c-3.974-3.406-12.49-1.703-18.166-3.975
		c-5.678-2.271-51.661-29.521-51.661-29.521s-11.355-15.326-23.844-19.868c-12.491-4.541-16.465-6.812-16.465-6.812
		s-12.489-26.682-19.303-30.088c-6.811-3.407-10.785-6.812-10.785-6.812l1.703-6.245c0,0,18.166,15.327,32.358-3.405
		c0,0-18.734,15.895-26.681-1.136c0,0,12.488-11.354,21.573,1.703c0,0,7.947-11.922-17.6-10.786c0,0,18.733-13.627,14.192,10.219
		c0,0,15.896-23.276-10.22-16.465c0,0,14.761-9.65,17.6,8.516c0,0,9.083-10.219-2.839-18.166c0,0-9.65,7.947-19.869,0.567
		L414.648,470.183z"/>
	<path fill="none" stroke="#000000" stroke-width="2" d="M403.294,510.49c0,0-9.082,81.748-13.624,94.237
		c0,0-3.408,52.229-14.761,67.559c0,0-9.083,5.107-6.244,6.812c2.837,1.702,11.353,0,15.895-2.271
		c4.542-2.271,19.301-2.839,24.411-3.405c5.109-0.57,35.198-9.085,47.688-11.924c12.489-2.837,24.979-9.65,26.114-11.352
		c1.137-1.704,1.137-1.704,1.137-1.704s0,6.811-1.137,12.489c-1.135,5.677,0,7.38-10.786,9.651
		c-10.786,2.269-77.774,10.786-84.588,14.191c-6.812,3.407-31.225,4.542-39.74,18.734c-8.515,14.194-9.083,36.335-9.649,40.875"/>
	<path d="M289.942,742.491l3.029-8.326c0,0,3.783-7.568-10.598-14.381c-14.381-6.813-24.979-16.654-40.119-31.035
		c-15.139-14.382-18.167-44.66-18.167-44.66l-1.512-3.783c0,0,20.435,16.649,60.553,28.762c0,0,61.315,5.298,91.59-11.354
		c0,0-15.14,16.652-16.652,22.708c0,0-3.028,6.812-12.111,13.626c0,0-18.164,11.353-18.922,51.472"/>
	<path fill="none" stroke="#000000" stroke-width="2" d="M134.77,660.932c0,0,27.25,20.246,79.479,30.844
		c0,0,32.547,2.271,34.062,15.896c1.515,13.626,3.026,31.036,3.026,31.036"/>
	<path d="M134.77,744.763c0,0,6.055-68.124,1.513-79.478c0,0,50.713,18.166,51.472,23.464c0,0-1.513,57.526,0.758,63.582"/>
	<path d="M389.856,750.816c0,0,3.784-61.312,0-64.339c0,0,0-6.812,74.183-13.626c0,0,16.274-1.891,18.733-11.92
		c0,0,4.73,61.121,3.975,89.885"/>
	<path d="M143.853,643.333c0,0,42.387,22.707,75.693,31.79"/>
	<path d="M380.774,670.583c0,0,10.6-8.325,23.466-7.569c12.867,0.756,68.123-13.627,74.179-17.409"/>
	<path d="M161.262,541.903c0,0-34.818,7.568-60.555,21.194l-24.979,13.625c0,0-20.438,9.842-27.25,17.408v12.112
		c0,0,25.737-16.655,34.062-15.14c0,0-31.792,15.898-32.549,18.925v17.407c0,0,6.056-1.512,10.598-0.755
		c0,0,24.979-31.794,34.062-33.307c0,0-15.14,34.818-18.924,40.875c0,0-0.758,6.814,4.542,12.112
		c5.299,5.298,6.056,17.408,5.299,21.95c-0.758,4.54,6.812-12.11,3.027-30.277c-3.785-18.166,14.38-52.23,22.708-56.013
		c0,0,4.543,7.566,1.515,13.624v9.841c0,0,11.354-35.579,15.896-39.362c0,0,7.569,0,15.895-4.541
		C152.936,557.042,158.233,547.957,161.262,541.903z"/>
</g>
</svg>
